
<svg width="16px" height="17px" viewBox="0 0 16 17" version="1.1" xmlns="http://www.w3.org/2000/svg" xmlns:xlink="http://www.w3.org/1999/xlink">
    <!-- Generator: Sketch 51.1 (57501) - http://www.bohemiancoding.com/sketch -->
    <desc>Created with Sketch.</desc>
    <defs></defs>
    <g id="Page-1" stroke="none" stroke-width="1" fill="none" fill-rule="evenodd">
        <g id="Brusselslife-profile-dropdown" transform="translate(-253.000000, -245.000000)" fill="#9C9C9C">
            <g id="Group-12-Copy" transform="translate(253.000000, 245.000000)">
                <g id="Fill-228-+-Fill-229-+-Fill-230">
                    <path d="M3.00624,10.099815 C2.09904,9.16674 1.59984,7.92264 1.59984,6.600165 C1.59984,5.27769 2.09904,4.03524 3.00624,3.100515 C3.91264,2.164965 5.11824,1.650165 6.39984,1.650165 C7.68224,1.650165 8.88704,2.164965 9.79344,3.10134 C10.70064,4.03524 11.19984,5.27769 11.19984,6.600165 C11.19984,7.92264 10.70064,9.16674 9.79344,10.10064 C8.88704,11.035365 7.68224,11.550165 6.39984,11.550165 C5.11824,11.550165 3.91264,11.035365 3.00624,10.099815 L3.00624,10.099815 Z M15.72464,15.09189 L11.43424,10.667415 C12.31664,9.51159 12.79984,8.095065 12.79984,6.600165 C12.79984,4.83714 12.13424,3.179715 10.92464,1.933965 C9.71664,0.68739 8.10944,0.000165 6.39984,0.000165 C4.69024,0.000165 3.08384,0.68739 1.87504,1.933965 C0.66624,3.179715 -0.00016,4.83714 -0.00016,6.600165 C-0.00016,8.364015 0.66624,10.020615 1.87504,11.26719 C3.08384,12.513765 4.69024,13.200165 6.39984,13.200165 C7.82944,13.200165 9.18384,12.71424 10.29744,11.82819 L14.59344,16.25844 L15.72464,15.09189 Z" id="Fill-228"></path>
                </g>
            </g>
        </g>
    </g>
</svg>