
<svg width="12px" height="17px" viewBox="0 0 12 17" version="1.1" xmlns="http://www.w3.org/2000/svg" xmlns:xlink="http://www.w3.org/1999/xlink">
    <!-- Generator: Sketch 51.1 (57501) - http://www.bohemiancoding.com/sketch -->
    <desc>Created with Sketch.</desc>
    <defs></defs>
    <g id="Page-1" stroke="none" stroke-width="1" fill="none" fill-rule="evenodd">
        <g id="Brusselslife-profile-dropdown" transform="translate(-769.000000, -245.000000)">
            <g id="Group-3" transform="translate(722.000000, 207.000000)">
                <g id="Group-2" transform="translate(37.000000, 31.000000)">
                    <path d="M15.4997417,0 C6.93985316,0 0,6.93985316 0,15.4997417 C0,24.0597593 6.93985316,31 15.4997417,31 C24.0597593,31 31,24.0597593 31,15.4997417 C31,6.93985316 24.0597593,0 15.4997417,0 Z" id="Fill-2"></path>
                    <path d="M15.9655995,7.001 C15.9772469,7.001 15.9883526,7.0005 16,7 C16.0111057,7.0005 16.0222114,7.001 16.0338589,7.001 C18.772225,7.041 21,9.129875 21,11.65775 C21,14.7485 17.4215288,17.878375 16,19 C15.904789,18.92475 15.7995558,18.840375 15.6868737,18.7475 C15.6847067,18.746125 15.6830815,18.744625 15.6814563,18.743125 C14.1075628,17.452625 11.0000001,14.538625 11.0000001,11.65775 C10.9994584,9.129875 13.2277751,7.041 15.9655995,7.001 Z" id="Path" fill="#FFFFFF"></path>
                    <path d="M18,10.9999482 C18,12.1046816 17.1046924,13 15.9998447,13 C14.8954111,13 14,12.1046816 14,10.9999482 C14,9.895629 14.8954111,9 15.9998447,9 C17.1046924,9 18,9.895629 18,10.9999482 Z" id="Fill-1" fill="#4A4A4A"></path>
                    <path d="M16.0000674,24 C13.0187603,24 10,23.1044671 10,21.3925558 C10,20.1915512 11.486275,19.3929509 13.4023195,19.0231397 C13.7733494,19.4132686 14.1239012,19.7572594 14.4317455,20.0443886 C12.3446015,20.2884838 11.1183438,20.9802749 11.1183438,21.3925558 C11.1183438,21.8985241 12.9713375,22.8287665 16.0000674,22.8287665 C19.0286625,22.8287665 20.8821951,21.8985241 20.8821951,21.3925558 C20.8821951,20.9719502 19.6039339,20.2626633 17.4409404,20.03169 C17.7514792,19.7417389 18.1051296,19.394644 18.4787192,19 C20.4521561,19.3597934 22,20.1667184 22,21.3925558 C22,23.1044671 18.9817786,24 16.0000674,24 Z" id="Path" fill="#FFFFFF"></path>
                </g>
            </g>
        </g>
    </g>
</svg>