
<svg width="26px" height="26px" viewBox="0 0 26 26" version="1.1" xmlns="http://www.w3.org/2000/svg" xmlns:xlink="http://www.w3.org/1999/xlink">
    <!-- Generator: Sketch 51.2 (57519) - http://www.bohemiancoding.com/sketch -->
    <desc>Created with Sketch.</desc>
    <defs>
        <polygon id="path-1" points="0.06 0.4 25.602 0.4 25.602 26.002 0.06 26.002"></polygon>
    </defs>
    <g id="Page-1" stroke="none" stroke-width="1" fill="none" fill-rule="evenodd">
        <g id="Brusselslife-v5.3_home_block_propotions" transform="translate(-474.000000, -2755.000000)">
            <g id="restaurant-cutlery-circular-symbol-of-a-spoon-and-a-fork-in-a-circle" transform="translate(474.000000, 2755.000000)">
                <path d="M13,2 C6.92692415,2 2,6.923761 2,13.002038 C2,17.3806392 4.56636103,21.1458082 8.26766694,22.9168133 L8.60998425,16.2658638 C8.60998425,16.2658638 7.96100769,16.0508569 7.82245068,15.9836035 C6.44910623,15.3783233 5.45068074,13.5950903 5.45068074,11.2819824 C5.45068074,8.76303844 7.40474206,6.58953219 9.29869408,6.56915239 L9.30684449,6.56915239 C11.1967213,6.58953219 13.1548578,8.76303844 13.1548578,11.2819824 C13.1548578,13.5950903 12.1564323,15.3783233 10.7830879,15.9836035 C10.7708623,15.9866605 9.98740391,16.2740157 9.98740391,16.2740157 L10.3735297,23.6698472 C11.2170973,23.8767022 12.0922478,24 13,24 C14.2256182,24 15.3992776,23.793145 16.4975456,23.4222325 L16.8398629,16.8314034 C15.94128,16.6316813 15.1771788,16.0630848 14.6952857,15.3426586 C14.098268,14.4551181 15.1527276,6.56915239 15.1527276,6.56915239 L15.8373622,6.56915239 L15.8373622,13.9690597 L16.5179216,13.9690597 L16.5179216,6.56915239 L17.2575715,6.56915239 L17.2575715,13.9690597 L17.938131,13.9690597 L17.938131,6.56915239 L18.7063073,6.56915239 L18.7063073,13.9690597 L19.3868667,13.9690597 L19.3868667,6.56915239 L19.9125683,6.56915239 C19.9125683,6.56915239 20.9629527,14.4551181 20.3700102,15.3467346 C19.8921923,16.0549328 19.1362415,16.6235294 18.2488654,16.8273275 C18.2335834,16.8314034 18.2213578,16.8385364 18.2213578,16.8385364 L18.5157914,22.5071792 C21.7912383,20.6047244 24,17.0657712 24,13.002038 C23.9959248,6.923761 19.0730759,2 13,2 Z" id="Fill-1" fill="#000000"></path>
                <g id="Group-5">
                    <mask id="mask-2" fill="white">
                        <use xlink:href="#path-1"></use>
                    </mask>
                    <g id="Clip-3"></g>
                    <path d="M6.969,10.42 C7.008,10.259 7.062,10.111 7.062,10.107 C7.078,10.048 7.047,9.99 6.984,9.951 C6.926,9.92 6.848,9.935 6.816,9.986 C6.816,9.986 6.742,10.103 6.633,10.279 C6.547,10.427 6.418,10.666 6.332,10.966 C6.254,11.224 6.164,11.572 6.121,11.962 C6.105,12.166 6.102,12.349 6.105,12.537 C6.121,12.755 6.156,12.939 6.219,13.15 C6.43,13.755 6.594,14.337 7.184,14.912 C7.367,15.103 7.559,15.236 7.699,15.33 L7.746,15.365 C7.777,15.384 7.805,15.404 7.832,15.42 C7.949,15.478 8.027,15.502 8.043,15.505 C8.098,15.521 8.16,15.494 8.184,15.447 C8.207,15.396 8.191,15.334 8.141,15.295 C8.141,15.295 8.074,15.236 7.988,15.127 C7.93,15.06 7.863,14.966 7.789,14.857 C7.738,14.779 7.676,14.693 7.617,14.607 C7.332,14.17 7.164,13.56 6.938,12.931 C6.891,12.795 6.855,12.619 6.84,12.47 C6.824,12.298 6.812,12.13 6.812,11.978 C6.809,11.619 6.824,11.31 6.855,11.06 C6.891,10.779 6.918,10.568 6.969,10.42 Z" id="Fill-2" fill="#000000" mask="url(#mask-2)"></path>
                    <path d="M12.801,0.4 C5.742,0.4 0,6.142 0,13.201 C0,20.255 5.742,26.002 12.801,26.002 C19.859,26.002 25.602,20.255 25.602,13.201 C25.602,6.142 19.859,0.4 12.801,0.4 Z M12.801,25.045 C6.27,25.045 0.953,19.732 0.953,13.201 C0.953,6.67 6.27,1.353 12.801,1.353 C19.332,1.353 24.645,6.67 24.645,13.201 C24.645,19.732 19.332,25.045 12.801,25.045 Z" id="Fill-4" fill="#000000" mask="url(#mask-2)"></path>
                </g>
            </g>
        </g>
    </g>
</svg>