
<svg width="20px" height="20px" viewBox="0 0 20 20" version="1.1" xmlns="http://www.w3.org/2000/svg" xmlns:xlink="http://www.w3.org/1999/xlink">
    <!-- Generator: Sketch 51.2 (57519) - http://www.bohemiancoding.com/sketch -->
    <desc>Created with Sketch.</desc>
    <defs>
        <polygon id="path-1" points="0 0.029532654 19.976561 0.029532654 19.976561 19.9489998 0 19.9489998"></polygon>
    </defs>
    <g id="Page-1" stroke="none" stroke-width="1" fill="none" fill-rule="evenodd">
        <g id="Brusselslife-v5.3_home_block_propotions" transform="translate(-328.000000, -3224.000000)">
            <g id="percentage-copy-3" transform="translate(328.000000, 3224.000000)">
                <path d="M8.8,9.59997549 C8.8,10.0417267 8.44172666,10.4 8.00002451,10.4 C7.55827334,10.4 7.2,10.0417267 7.2,9.59997549 C7.2,9.15827334 7.55827334,8.8 8.00002451,8.8 C8.44172666,8.8 8.8,9.15827334 8.8,9.59997549 Z" id="Fill-1" fill="#FFFFFF"></path>
                <g id="Group-5">
                    <mask id="mask-2" fill="white">
                        <use xlink:href="#path-1"></use>
                    </mask>
                    <g id="Clip-3"></g>
                    <path d="M13.5454308,11.6769388 C13.5454308,12.1368878 13.1639687,12.5095918 12.6931593,12.5095918 C12.2225587,12.5095918 11.8409399,12.1368878 11.8409399,11.6769388 C11.8409399,11.2171429 12.2225587,10.8442347 12.6931593,10.8442347 C13.1639687,10.8442347 13.5454308,11.2171429 13.5454308,11.6769388 Z" id="Fill-2" fill="#FFFFFF" mask="url(#mask-2)"></path>
                    <path d="M19.7199478,11.0891837 L19.410705,10.6770408 C19.0765535,10.2280102 19.0681984,9.6197449 19.3982768,9.1627551 L19.6989034,8.74642857 C20.1584856,8.10969388 19.9453264,7.22397959 19.2393734,6.8525 L18.78,6.61173469 C18.2785901,6.35045918 18.0028198,5.80362245 18.0989034,5.25255102 L18.1865796,4.7505102 C18.3204178,3.98321429 17.7313316,3.27290816 16.9333159,3.24020408 L16.4111227,3.21989796 C15.8430809,3.19535714 15.3500261,2.81989796 15.1913316,2.28520408 L15.0450653,1.79530612 C14.8237598,1.04433673 13.9798956,0.656530612 13.244752,0.966836735 L12.7641775,1.16673469 C12.2419843,1.38714286 11.6320627,1.25658163 11.2520627,0.840255102 L10.9052742,0.460612245 C10.3747258,-0.118928571 9.44313316,-0.114744898 8.91665796,0.476938776 L8.57415144,0.860612245 C8.19822454,1.28112245 7.5924282,1.41984694 7.06610966,1.20760204 L6.58146214,1.01168367 C5.84203655,0.71372449 5.00652742,1.11790816 4.79336815,1.86882653 L4.6556658,2.36270408 C4.50511749,2.90142857 4.02067885,3.2852551 3.45237598,3.31377551 L2.93018277,3.3422449 C2.1324282,3.38729592 1.55577023,4.10556122 1.70203655,4.87285714 L1.7981201,5.37489796 C1.90255875,5.9219898 1.63530026,6.47285714 1.13801567,6.74229592 L0.682715405,6.99122449 C-0.0148825065,7.37086735 -0.2154047,8.26076531 0.256605744,8.88933673 L0.565848564,9.30147959 C0.899947781,9.7505102 0.908355091,10.3585714 0.578276762,10.8157653 L0.277597911,11.2320918 C-0.181932115,11.8688265 0.0310182768,12.7545408 0.736971279,13.1260204 L1.19655352,13.3667857 C1.69796345,13.6280612 1.9735248,14.174949 1.87744125,14.7259694 L1.78971279,15.2280102 C1.65613577,15.9953061 2.24522193,16.7056122 3.0429765,16.7383163 L3.56516971,16.7586224 C4.13347258,16.7831633 4.62631854,17.1586224 4.78522193,17.6933673 L4.93127937,18.1832143 C5.15279373,18.9341837 5.99665796,19.3218367 6.73180157,19.0116837 L7.2121671,18.8116327 C7.73436031,18.5913776 8.34428198,18.7219388 8.72449086,19.1382653 L9.07127937,19.5177041 C9.60590078,20.0975 10.5374935,20.0933163 11.0596867,19.5015816 L11.4023499,19.1177551 C11.778329,18.697398 12.3841253,18.5587245 12.9103916,18.7709694 L13.3950914,18.9668878 C14.134517,19.2647959 14.9700261,18.8606633 15.1829765,18.1096939 L15.3208877,17.6158163 C15.4711749,17.0769388 15.9558747,16.6932653 16.5239687,16.6647449 L17.0461619,16.6362755 C17.8441253,16.5912245 18.4205744,15.8729592 18.2743081,15.1056633 L18.1782245,14.6036224 C18.0737859,14.0565306 18.341201,13.5055102 18.838329,13.2362245 L19.2938381,12.9870918 C19.991436,12.6116327 20.1919582,11.7219898 19.7199478,11.0891837 Z M5.21947781,8.29739796 C5.21947781,7.18714286 6.1386423,6.28928571 7.27498695,6.28928571 C8.41117493,6.28928571 9.33033943,7.18714286 9.33033943,8.29739796 C9.33033943,9.40770408 8.41117493,10.3055612 7.27498695,10.3055612 C6.1386423,10.3055612 5.21947781,9.40352041 5.21947781,8.29739796 Z M7.67174935,13.4769898 C7.49634465,13.6852551 7.17895561,13.7137755 6.96579634,13.5423469 C6.75279373,13.3709694 6.72344648,13.0606633 6.89885117,12.852602 L12.2921671,6.5055102 C12.4675718,6.29744898 12.7851697,6.26877551 12.9981201,6.44035714 C13.2112794,6.61173469 13.24047,6.92188776 13.0650131,7.13015306 L7.67174935,13.4769898 Z M12.6931593,13.6852551 C11.5569713,13.6852551 10.637859,12.7871939 10.637859,11.6769388 C10.637859,10.5668367 11.5569713,9.66877551 12.6931593,9.66877551 C13.8295561,9.66877551 14.7485117,10.5668367 14.7485117,11.6769388 C14.7485117,12.7871939 13.8295561,13.6852551 12.6931593,13.6852551 Z" id="Fill-4" fill="#598E1B" mask="url(#mask-2)"></path>
                </g>
            </g>
        </g>
    </g>
</svg>